<svg xmlns="http://www.w3.org/2000/svg" width="56" height="40"><defs><clipPath id="a"><path fill="#fff" d="M47.797 23.333c4.523 0 8.203 3.738 8.203 8.333 0 4.594-3.68 8.333-8.203 8.333s-8.203-3.739-8.203-8.333c0-2.023.741-3.855 1.926-5.3l-2.214-2.674c-1.338 1.447-2.334 3.219-2.78 5.165a12.691 12.691 0 00-.323 2.809c0 .92-.734 1.667-1.64 1.667h-15.48c-1.36 3.87-4.967 6.666-9.24 6.666C4.417 40 0 35.514 0 30s4.416-10 9.844-10c5.428 0 9.843 4.486 9.843 10h3.391c0-2.736-.838-5.271-2.24-7.399 1.513-3.14 4.392-5.292 7.713-5.81.457-.072.86-.334 1.117-.723l3.735-5.69a8.217 8.217 0 013.348-2.921c.01.012.024.02.034.033.85-.402 1.747-.701 2.7-.789V3.48c-.473-.062-.94-.147-1.428-.147h-1.854c-.907 0-1.64-.746-1.64-1.667s.733-1.667 1.64-1.667h1.854c7.474 0 14.552 6.269 14.552 14.805 0 1.553-.538 2.866-1.477 3.81a4.646 4.646 0 01-3.326 1.387c-.947.015-1.855.091-2.772.301-1.124.255-2.187.71-3.17 1.3l2.217 2.677c1.12-.585 2.372-.946 3.716-.946zM9.844 36.666c2.418 0 4.511-1.35 5.65-3.333h-4.01c-2.714 0-4.922-2.243-4.922-5 0-.922.734-1.667 1.641-1.667s1.64.745 1.64 1.667c0 .919.736 1.666 1.641 1.666h4.922c0-3.677-2.943-6.666-6.562-6.666-3.62 0-6.563 2.99-6.563 6.666 0 3.677 2.944 6.667 6.563 6.667zm37.953 0c2.714 0 4.922-2.243 4.922-5s-2.208-5-4.922-5a4.8 4.8 0 00-1.603.295l2.885 3.663c.565.72.45 1.768-.257 2.344a1.625 1.625 0 01-2.307-.26l-2.888-3.668a5.012 5.012 0 00-.752 2.626c0 2.757 2.208 5 4.922 5zM27.862 12.81c-2.386-.507-4.695-1.367-6.803-2.652l-2.624-1.6C20.543 5.34 24.124 3.333 28 3.333c2.212 0 4.287.694 6.088 1.848-1.339.864-2.517 1.977-3.416 3.347zm-8.491.206c1.373.836 2.834 1.482 4.325 2.036-2.06 1.134-3.857 2.745-5.13 4.824-.016.026-.016.056-.03.083-3.647-3.222-7.051-3.294-10.333-3.294C3.68 16.666 0 12.927 0 8.333c0-.921.734-1.667 1.64-1.667h7.203z"/></clipPath></defs><path fill="#777" d="M47.797 23.333c4.523 0 8.203 3.738 8.203 8.333 0 4.594-3.68 8.333-8.203 8.333s-8.203-3.739-8.203-8.333c0-2.023.741-3.855 1.926-5.3l-2.214-2.674c-1.338 1.447-2.334 3.219-2.78 5.165a12.691 12.691 0 00-.323 2.809c0 .92-.734 1.667-1.64 1.667h-15.48c-1.36 3.87-4.967 6.666-9.24 6.666C4.417 40 0 35.514 0 30s4.416-10 9.844-10c5.428 0 9.843 4.486 9.843 10h3.391c0-2.736-.838-5.271-2.24-7.399 1.513-3.14 4.392-5.292 7.713-5.81.457-.072.86-.334 1.117-.723l3.735-5.69a8.217 8.217 0 013.348-2.921c.01.012.024.02.034.033.85-.402 1.747-.701 2.7-.789V3.48c-.473-.062-.94-.147-1.428-.147h-1.854c-.907 0-1.64-.746-1.64-1.667s.733-1.667 1.64-1.667h1.854c7.474 0 14.552 6.269 14.552 14.805 0 1.553-.538 2.866-1.477 3.81a4.646 4.646 0 01-3.326 1.387c-.947.015-1.855.091-2.772.301-1.124.255-2.187.71-3.17 1.3l2.217 2.677c1.12-.585 2.372-.946 3.716-.946zM9.844 36.666c2.418 0 4.511-1.35 5.65-3.333h-4.01c-2.714 0-4.922-2.243-4.922-5 0-.922.734-1.667 1.641-1.667s1.64.745 1.64 1.667c0 .919.736 1.666 1.641 1.666h4.922c0-3.677-2.943-6.666-6.562-6.666-3.62 0-6.563 2.99-6.563 6.666 0 3.677 2.944 6.667 6.563 6.667zm37.953 0c2.714 0 4.922-2.243 4.922-5s-2.208-5-4.922-5a4.8 4.8 0 00-1.603.295l2.885 3.663c.565.72.45 1.768-.257 2.344a1.625 1.625 0 01-2.307-.26l-2.888-3.668a5.012 5.012 0 00-.752 2.626c0 2.757 2.208 5 4.922 5zM27.862 12.81c-2.386-.507-4.695-1.367-6.803-2.652l-2.624-1.6C20.543 5.34 24.124 3.333 28 3.333c2.212 0 4.287.694 6.088 1.848-1.339.864-2.517 1.977-3.416 3.347zm-8.491.206c1.373.836 2.834 1.482 4.325 2.036-2.06 1.134-3.857 2.745-5.13 4.824-.016.026-.016.056-.03.083-3.647-3.222-7.051-3.294-10.333-3.294C3.68 16.666 0 12.927 0 8.333c0-.921.734-1.667 1.64-1.667h7.203z"/><path fill="none" stroke="#e63619" stroke-linecap="round" stroke-linejoin="round" stroke-miterlimit="20" stroke-width="2" d="M47.797 23.333c4.523 0 8.203 3.738 8.203 8.333 0 4.594-3.68 8.333-8.203 8.333s-8.203-3.739-8.203-8.333c0-2.023.741-3.855 1.926-5.3l-2.214-2.674c-1.338 1.447-2.334 3.219-2.78 5.165a12.691 12.691 0 00-.323 2.809c0 .92-.734 1.667-1.64 1.667h-15.48c-1.36 3.87-4.967 6.666-9.24 6.666C4.417 40 0 35.514 0 30s4.416-10 9.844-10c5.428 0 9.843 4.486 9.843 10h3.391c0-2.736-.838-5.271-2.24-7.399 1.513-3.14 4.392-5.292 7.713-5.81.457-.072.86-.334 1.117-.723l3.735-5.69a8.217 8.217 0 013.348-2.921c.01.012.024.02.034.033.85-.402 1.747-.701 2.7-.789V3.48c-.473-.062-.94-.147-1.428-.147h-1.854c-.907 0-1.64-.746-1.64-1.667s.733-1.667 1.64-1.667h1.854c7.474 0 14.552 6.269 14.552 14.805 0 1.553-.538 2.866-1.477 3.81a4.646 4.646 0 01-3.326 1.387c-.947.015-1.855.091-2.772.301-1.124.255-2.187.71-3.17 1.3l2.217 2.677c1.12-.585 2.372-.946 3.716-.946zM9.844 36.666c2.418 0 4.511-1.35 5.65-3.333h-4.01c-2.714 0-4.922-2.243-4.922-5 0-.922.734-1.667 1.641-1.667s1.64.745 1.64 1.667c0 .919.736 1.666 1.641 1.666h4.922c0-3.677-2.943-6.666-6.562-6.666-3.62 0-6.563 2.99-6.563 6.666 0 3.677 2.944 6.667 6.563 6.667zm37.953 0c2.714 0 4.922-2.243 4.922-5s-2.208-5-4.922-5a4.8 4.8 0 00-1.603.295l2.885 3.663c.565.72.45 1.768-.257 2.344a1.625 1.625 0 01-2.307-.26l-2.888-3.668a5.012 5.012 0 00-.752 2.626c0 2.757 2.208 5 4.922 5zM27.862 12.81c-2.386-.507-4.695-1.367-6.803-2.652l-2.624-1.6C20.543 5.34 24.124 3.333 28 3.333c2.212 0 4.287.694 6.088 1.848-1.339.864-2.517 1.977-3.416 3.347zm-8.491.206c1.373.836 2.834 1.482 4.325 2.036-2.06 1.134-3.857 2.745-5.13 4.824-.016.026-.016.056-.03.083-3.647-3.222-7.051-3.294-10.333-3.294C3.68 16.666 0 12.927 0 8.333c0-.921.734-1.667 1.64-1.667h7.203z" clip-path="url(&quot;#a&quot;)"/></svg>