<svg xmlns="http://www.w3.org/2000/svg" width="38" height="40"><defs><clipPath id="a"><path fill="#fff" d="M13.728 22.067v3.167a.895.895 0 01-.882.908H9.768a.895.895 0 01-.882-.908v-3.167c0-.501.395-.907.882-.907h3.078c.487 0 .882.406.882.907zm7.693 3.167a.895.895 0 01-.882.908h-3.078a.895.895 0 01-.882-.908v-3.167c0-.501.395-.907.882-.907h3.078c.487 0 .882.406.882.907zm7.693 0a.895.895 0 01-.882.908h-3.078a.895.895 0 01-.882-.908v-3.167c0-.501.395-.907.882-.907h3.078c.487 0 .882.406.882.907zm-15.386 4.751v3.168a.895.895 0 01-.882.907H9.768a.895.895 0 01-.882-.907v-3.168c0-.502.395-.907.882-.907h3.078c.487 0 .882.405.882.907zm7.693 3.168a.895.895 0 01-.882.907h-3.078a.895.895 0 01-.882-.907v-3.168c0-.502.395-.907.882-.907h3.078c.487 0 .882.405.882.907zm7.693-3.168v3.168a.895.895 0 01-.882.907h-3.078a.895.895 0 01-.882-.907v-3.168c0-.502.395-.907.882-.907h3.078c.487 0 .882.405.882.907zM38 8.035v28.358c0 1.976-1.562 3.606-3.483 3.606H3.483C1.56 40 0 38.373 0 36.393V8.035c0-1.943 1.526-3.524 3.382-3.582V9.29c0 2.187 1.724 3.95 3.848 3.95h2.428c2.125 0 3.871-1.763 3.871-3.95V4.435h10.942v4.856c0 2.187 1.746 3.95 3.87 3.95h2.428c2.125 0 3.849-1.763 3.849-3.95V4.453C36.474 4.51 38 6.092 38 8.035zm-4.51 26.592V19.979c0-.856-.674-1.55-1.506-1.55H5.95c-.831 0-1.506.694-1.506 1.55v14.648c0 .855.675 1.55 1.506 1.55h26.035c.832 0 1.506-.695 1.506-1.55zM5.902 9.29V1.357c0-.75.591-1.358 1.32-1.358h2.401c.729 0 1.32.608 1.32 1.358V9.29c0 .75-.591 1.357-1.32 1.357H7.222c-.729 0-1.32-.607-1.32-1.357zm21.09 0V1.357c0-.75.59-1.358 1.319-1.358h2.401c.729 0 1.32.608 1.32 1.358V9.29c0 .75-.591 1.357-1.32 1.357h-2.401c-.729 0-1.32-.607-1.32-1.357z"/></clipPath></defs><path fill="#777" d="M13.728 22.067v3.167a.895.895 0 01-.882.908H9.768a.895.895 0 01-.882-.908v-3.167c0-.501.395-.907.882-.907h3.078c.487 0 .882.406.882.907zm7.693 3.167a.895.895 0 01-.882.908h-3.078a.895.895 0 01-.882-.908v-3.167c0-.501.395-.907.882-.907h3.078c.487 0 .882.406.882.907zm7.693 0a.895.895 0 01-.882.908h-3.078a.895.895 0 01-.882-.908v-3.167c0-.501.395-.907.882-.907h3.078c.487 0 .882.406.882.907zm-15.386 4.751v3.168a.895.895 0 01-.882.907H9.768a.895.895 0 01-.882-.907v-3.168c0-.502.395-.907.882-.907h3.078c.487 0 .882.405.882.907zm7.693 3.168a.895.895 0 01-.882.907h-3.078a.895.895 0 01-.882-.907v-3.168c0-.502.395-.907.882-.907h3.078c.487 0 .882.405.882.907zm7.693-3.168v3.168a.895.895 0 01-.882.907h-3.078a.895.895 0 01-.882-.907v-3.168c0-.502.395-.907.882-.907h3.078c.487 0 .882.405.882.907zM38 8.035v28.358c0 1.976-1.562 3.606-3.483 3.606H3.483C1.56 40 0 38.373 0 36.393V8.035c0-1.943 1.526-3.524 3.382-3.582V9.29c0 2.187 1.724 3.95 3.848 3.95h2.428c2.125 0 3.871-1.763 3.871-3.95V4.435h10.942v4.856c0 2.187 1.746 3.95 3.87 3.95h2.428c2.125 0 3.849-1.763 3.849-3.95V4.453C36.474 4.51 38 6.092 38 8.035zm-4.51 26.592V19.979c0-.856-.674-1.55-1.506-1.55H5.95c-.831 0-1.506.694-1.506 1.55v14.648c0 .855.675 1.55 1.506 1.55h26.035c.832 0 1.506-.695 1.506-1.55zM5.902 9.29V1.357c0-.75.591-1.358 1.32-1.358h2.401c.729 0 1.32.608 1.32 1.358V9.29c0 .75-.591 1.357-1.32 1.357H7.222c-.729 0-1.32-.607-1.32-1.357zm21.09 0V1.357c0-.75.59-1.358 1.319-1.358h2.401c.729 0 1.32.608 1.32 1.358V9.29c0 .75-.591 1.357-1.32 1.357h-2.401c-.729 0-1.32-.607-1.32-1.357z"/><path fill="none" stroke="#777" stroke-linecap="round" stroke-linejoin="round" stroke-miterlimit="20" stroke-width="2" d="M13.728 22.067v3.167a.895.895 0 01-.882.908H9.768a.895.895 0 01-.882-.908v-3.167c0-.501.395-.907.882-.907h3.078c.487 0 .882.406.882.907zm7.693 3.167a.895.895 0 01-.882.908h-3.078a.895.895 0 01-.882-.908v-3.167c0-.501.395-.907.882-.907h3.078c.487 0 .882.406.882.907zm7.693 0a.895.895 0 01-.882.908h-3.078a.895.895 0 01-.882-.908v-3.167c0-.501.395-.907.882-.907h3.078c.487 0 .882.406.882.907zm-15.386 4.751v3.168a.895.895 0 01-.882.907H9.768a.895.895 0 01-.882-.907v-3.168c0-.502.395-.907.882-.907h3.078c.487 0 .882.405.882.907zm7.693 3.168a.895.895 0 01-.882.907h-3.078a.895.895 0 01-.882-.907v-3.168c0-.502.395-.907.882-.907h3.078c.487 0 .882.405.882.907zm7.693-3.168v3.168a.895.895 0 01-.882.907h-3.078a.895.895 0 01-.882-.907v-3.168c0-.502.395-.907.882-.907h3.078c.487 0 .882.405.882.907zM38 8.035v28.358c0 1.976-1.562 3.606-3.483 3.606H3.483C1.56 40 0 38.373 0 36.393V8.035c0-1.943 1.526-3.524 3.382-3.582V9.29c0 2.187 1.724 3.95 3.848 3.95h2.428c2.125 0 3.871-1.763 3.871-3.95V4.435h10.942v4.856c0 2.187 1.746 3.95 3.87 3.95h2.428c2.125 0 3.849-1.763 3.849-3.95V4.453C36.474 4.51 38 6.092 38 8.035zm-4.51 26.592V19.979c0-.856-.674-1.55-1.506-1.55H5.95c-.831 0-1.506.694-1.506 1.55v14.648c0 .855.675 1.55 1.506 1.55h26.035c.832 0 1.506-.695 1.506-1.55zM5.902 9.29V1.357c0-.75.591-1.358 1.32-1.358h2.401c.729 0 1.32.608 1.32 1.358V9.29c0 .75-.591 1.357-1.32 1.357H7.222c-.729 0-1.32-.607-1.32-1.357zm21.09 0V1.357c0-.75.59-1.358 1.319-1.358h2.401c.729 0 1.32.608 1.32 1.358V9.29c0 .75-.591 1.357-1.32 1.357h-2.401c-.729 0-1.32-.607-1.32-1.357z" clip-path="url(&quot;#a&quot;)"/></svg>