<svg xmlns="http://www.w3.org/2000/svg" width="45" height="40"><defs><clipPath id="a"><path fill="#fff" d="M29.079 17.928H41.59c1.643 2.746 2.652 5.737 3.13 7.36H33.475zm-6.392 6.1a9.132 9.132 0 007.485 3.915H45l-1.253 12.056H19.46C14.26 40 9.375 37.967 5.7 34.275c-3.676-3.692-5.7-8.6-5.7-13.82v-.912c0-5.22 2.024-10.129 5.7-13.82C9.375 2.032 14.26 0 19.46 0h.694c6.521 0 12.688 2.593 16.919 7.117 2.973 3.178 4.349 6.304 4.956 8.156H16.584zM38.12 34.854h2.486v-2.666H38.12zm-5.795 0h2.486v-2.666h-2.486zm-1.933-9.566h-.22a6.492 6.492 0 01-5.318-2.781l-3.19-4.578h4.333z"/></clipPath></defs><path fill="#777" d="M29.079 17.928H41.59c1.643 2.746 2.652 5.737 3.13 7.36H33.475zm-6.392 6.1a9.132 9.132 0 007.485 3.915H45l-1.253 12.056H19.46C14.26 40 9.375 37.967 5.7 34.275c-3.676-3.692-5.7-8.6-5.7-13.82v-.912c0-5.22 2.024-10.129 5.7-13.82C9.375 2.032 14.26 0 19.46 0h.694c6.521 0 12.688 2.593 16.919 7.117 2.973 3.178 4.349 6.304 4.956 8.156H16.584zM38.12 34.854h2.486v-2.666H38.12zm-5.795 0h2.486v-2.666h-2.486zm-1.933-9.566h-.22a6.492 6.492 0 01-5.318-2.781l-3.19-4.578h4.333z"/><path fill="none" stroke="#777" stroke-linecap="round" stroke-linejoin="round" stroke-miterlimit="20" stroke-width="2" d="M29.079 17.928H41.59c1.643 2.746 2.652 5.737 3.13 7.36H33.475zm-6.392 6.1a9.132 9.132 0 007.485 3.915H45l-1.253 12.056H19.46C14.26 40 9.375 37.967 5.7 34.275c-3.676-3.692-5.7-8.6-5.7-13.82v-.912c0-5.22 2.024-10.129 5.7-13.82C9.375 2.032 14.26 0 19.46 0h.694c6.521 0 12.688 2.593 16.919 7.117 2.973 3.178 4.349 6.304 4.956 8.156H16.584zM38.12 34.854h2.486v-2.666H38.12zm-5.795 0h2.486v-2.666h-2.486zm-1.933-9.566h-.22a6.492 6.492 0 01-5.318-2.781l-3.19-4.578h4.333z" clip-path="url(&quot;#a&quot;)"/></svg>