<svg xmlns="http://www.w3.org/2000/svg" width="53" height="40"><defs><clipPath id="a"><path fill="#fff" d="M49.687 15.554c-1.826 0-3.312 1.496-3.312 3.334v3.333h-2.208v-4.175c0-1.17-.472-2.315-1.294-3.142l-2.476-2.492a4.428 4.428 0 00-3.123-1.302h-6.357V6.666h3.312c1.827 0 3.313-1.495 3.313-3.334C37.542 1.495 36.056 0 34.229 0H20.98c-1.827 0-3.312 1.496-3.312 3.333 0 1.839 1.485 3.334 3.312 3.334h3.313v4.444h-4.15a4.429 4.429 0 00-3.122 1.302l-3.123 3.142h-1.751c-1.827 0-3.313 1.496-3.313 3.334v3.333H6.625v-3.333c0-1.838-1.486-3.334-3.313-3.334C1.486 15.554 0 17.05 0 18.888V32.22c0 1.838 1.486 3.334 3.312 3.334 1.827 0 3.313-1.496 3.313-3.334v-3.333h2.208v3.333c0 1.838 1.486 3.334 3.313 3.334h1.751l3.123 3.142A4.431 4.431 0 0020.142 40h14.924a4.43 4.43 0 003.123-1.302l4.684-4.714a4.485 4.485 0 001.294-3.142v-1.953h2.208v3.333c0 1.838 1.486 3.334 3.312 3.334 1.827 0 3.313-1.496 3.313-3.334V18.888c0-1.838-1.486-3.334-3.313-3.334z"/></clipPath></defs><path fill="#777" d="M49.687 15.554c-1.826 0-3.312 1.496-3.312 3.334v3.333h-2.208v-4.175c0-1.17-.472-2.315-1.294-3.142l-2.476-2.492a4.428 4.428 0 00-3.123-1.302h-6.357V6.666h3.312c1.827 0 3.313-1.495 3.313-3.334C37.542 1.495 36.056 0 34.229 0H20.98c-1.827 0-3.312 1.496-3.312 3.333 0 1.839 1.485 3.334 3.312 3.334h3.313v4.444h-4.15a4.429 4.429 0 00-3.122 1.302l-3.123 3.142h-1.751c-1.827 0-3.313 1.496-3.313 3.334v3.333H6.625v-3.333c0-1.838-1.486-3.334-3.313-3.334C1.486 15.554 0 17.05 0 18.888V32.22c0 1.838 1.486 3.334 3.312 3.334 1.827 0 3.313-1.496 3.313-3.334v-3.333h2.208v3.333c0 1.838 1.486 3.334 3.313 3.334h1.751l3.123 3.142A4.431 4.431 0 0020.142 40h14.924a4.43 4.43 0 003.123-1.302l4.684-4.714a4.485 4.485 0 001.294-3.142v-1.953h2.208v3.333c0 1.838 1.486 3.334 3.312 3.334 1.827 0 3.313-1.496 3.313-3.334V18.888c0-1.838-1.486-3.334-3.313-3.334z"/><path fill="none" stroke="#777" stroke-linecap="round" stroke-linejoin="round" stroke-miterlimit="20" stroke-width="2" d="M49.687 15.554c-1.826 0-3.312 1.496-3.312 3.334v3.333h-2.208v0-4.175c0-1.17-.472-2.315-1.294-3.142l-2.476-2.492a4.428 4.428 0 00-3.123-1.302h-6.357v0-4.444 0h3.312c1.827 0 3.313-1.495 3.313-3.334C37.542 1.495 36.056 0 34.229 0H20.98c-1.827 0-3.312 1.496-3.312 3.333 0 1.839 1.485 3.334 3.312 3.334h3.313v4.444h-4.15a4.429 4.429 0 00-3.122 1.302l-3.123 3.142v0h-1.751c-1.827 0-3.313 1.496-3.313 3.334v3.333H6.625v0-3.333c0-1.838-1.486-3.334-3.313-3.334C1.486 15.554 0 17.05 0 18.888V32.22c0 1.838 1.486 3.334 3.312 3.334 1.827 0 3.313-1.496 3.313-3.334v-3.333 0h2.208v3.333c0 1.838 1.486 3.334 3.313 3.334h1.751v0l3.123 3.142A4.431 4.431 0 0020.142 40h14.924a4.43 4.43 0 003.123-1.302l4.684-4.714a4.485 4.485 0 001.294-3.142v-1.953 0h2.208v3.333c0 1.838 1.486 3.334 3.312 3.334 1.827 0 3.313-1.496 3.313-3.334V18.888c0-1.838-1.486-3.334-3.313-3.334z" clip-path="url(&quot;#a&quot;)"/></svg>