<svg xmlns="http://www.w3.org/2000/svg" width="56" height="40"><defs><clipPath id="a"><path fill="#fff" d="M39.2 2.813l-6.224 33.142-.012.09c-.497 2.33-2.533 4.079-4.99 4.079-2.812 0-5.103-2.316-5.103-5.16 0-.913.242-1.749.649-2.482l13.198-29.99.166-.373c.229-.348.598-.592 1.043-.592.7 0 1.273.58 1.273 1.286zM34.936.743l-3.029 6.895C22.362 6.48 12.41 9.568 5.091 16.966L0 11.819C9.507 2.222 22.642-1.458 34.936.742zM50.91 16.965a32.274 32.274 0 00-10.487-7.09l1.362-7.242A39.352 39.352 0 0156 11.819zm-13.287 7.796l1.412-7.513c2.444 1.21 4.748 2.804 6.784 4.863l-5.09 5.146a17.938 17.938 0 00-3.106-2.496zM28.803 14.7l-3.271 7.424a17.75 17.75 0 00-10.258 5.133l-5.091-5.146c5.129-5.172 11.9-7.616 18.62-7.411z"/></clipPath></defs><path fill="#777" d="M39.2 2.813l-6.224 33.142-.012.09c-.497 2.33-2.533 4.079-4.99 4.079-2.812 0-5.103-2.316-5.103-5.16 0-.913.242-1.749.649-2.482l13.198-29.99.166-.373c.229-.348.598-.592 1.043-.592.7 0 1.273.58 1.273 1.286zM34.936.743l-3.029 6.895C22.362 6.48 12.41 9.568 5.091 16.966L0 11.819C9.507 2.222 22.642-1.458 34.936.742zM50.91 16.965a32.274 32.274 0 00-10.487-7.09l1.362-7.242A39.352 39.352 0 0156 11.819zm-13.287 7.796l1.412-7.513c2.444 1.21 4.748 2.804 6.784 4.863l-5.09 5.146a17.938 17.938 0 00-3.106-2.496zM28.803 14.7l-3.271 7.424a17.75 17.75 0 00-10.258 5.133l-5.091-5.146c5.129-5.172 11.9-7.616 18.62-7.411z"/><path fill="none" stroke="#777" stroke-linecap="round" stroke-linejoin="round" stroke-miterlimit="20" stroke-width="2" d="M39.2 2.813l-6.224 33.142-.012.09c-.497 2.33-2.533 4.079-4.99 4.079-2.812 0-5.103-2.316-5.103-5.16 0-.913.242-1.749.649-2.482l13.198-29.99.166-.373c.229-.348.598-.592 1.043-.592.7 0 1.273.58 1.273 1.286zM34.936.743l-3.029 6.895C22.362 6.48 12.41 9.568 5.091 16.966L0 11.819C9.507 2.222 22.642-1.458 34.936.742zM50.91 16.965a32.274 32.274 0 00-10.487-7.09l1.362-7.242A39.352 39.352 0 0156 11.819zm-13.287 7.796l1.412-7.513c2.444 1.21 4.748 2.804 6.784 4.863l-5.09 5.146a17.938 17.938 0 00-3.106-2.496zM28.803 14.7l-3.271 7.424a17.75 17.75 0 00-10.258 5.133l-5.091-5.146c5.129-5.172 11.9-7.616 18.62-7.411z" clip-path="url(&quot;#a&quot;)"/></svg>