<svg xmlns="http://www.w3.org/2000/svg" width="20" height="21" fill="none"><path fill="#646464" fill-rule="evenodd" d="M2.49 2.74C3.637 1.595 5.343 1.168 7.5 1.168h1.666a.75.75 0 110 1.5H7.5c-2.01 0-3.221.406-3.949 1.134-.728.728-1.135 1.94-1.135 3.949v5c0 2.01.407 3.22 1.135 3.949.728.728 1.94 1.134 3.949 1.134h5c2.01 0 3.22-.406 3.949-1.134.728-.728 1.134-1.94 1.134-3.949v-1.667a.75.75 0 011.5 0v1.667c0 2.157-.427 3.863-1.574 5.01-1.147 1.146-2.852 1.573-5.01 1.573h-5c-2.156 0-3.862-.426-5.009-1.573C1.343 16.611.917 14.906.917 12.75v-5c0-2.157.426-3.863 1.573-5.01z" clip-rule="evenodd"/><path fill="#646464" fill-rule="evenodd" d="M15.152.97c.978-.096 1.932.337 2.862 1.266.93.93 1.362 1.885 1.266 2.862-.092.938-.657 1.706-1.266 2.316l-6.575 6.575c-.2.193-.457.358-.7.481a2.756 2.756 0 01-.816.272l-2.512.36c-.651.089-1.284-.088-1.73-.533-.448-.446-.627-1.08-.531-1.735v-.001l.357-2.503v-.002c.04-.285.15-.577.273-.822.123-.245.291-.504.49-.703l6.567-6.567c.61-.61 1.377-1.174 2.315-1.266zm.147 1.493c-.42.041-.878.31-1.402.834L7.331 9.864a1.326 1.326 0 00-.21.316 1.294 1.294 0 00-.128.357v.002l-.359 2.509v.003c-.037.252.038.389.105.455.068.068.21.144.466.11h.001l2.505-.358c.068-.01.198-.05.353-.128a1.47 1.47 0 00.328-.216l6.561-6.561c.524-.524.793-.981.834-1.401.038-.381-.097-.918-.834-1.655s-1.274-.871-1.654-.834z" clip-rule="evenodd"/><path fill="#646464" fill-rule="evenodd" d="M12.223 2.986a.75.75 0 01.924.52 5.204 5.204 0 003.6 3.597.75.75 0 01-.41 1.444 6.704 6.704 0 01-4.634-4.636.75.75 0 01.52-.925z" clip-rule="evenodd"/></svg>